<svg xmlns="http://www.w3.org/2000/svg" viewBox="0 0 1730.63 741.84"><defs><style>.cls-1{fill:#404e6b;}.cls-2{fill:#0093bb;}.cls-3{fill:#0289a8;}.cls-4{fill:#65ffc8;}.cls-5{fill:#4aba93;}.cls-18,.cls-6{fill:#fff;}.cls-19,.cls-6{opacity:0.15;}.cls-17,.cls-7{opacity:0.4;}.cls-8{fill:#00a3c9;}.cls-9{fill:#efa68e;}.cls-10{fill:#b9826f;}.cls-11{fill:#3d3634;}.cls-12{fill:#e5e5e5;}.cls-13{fill:#7b8899;}.cls-14{fill:#707d8c;}.cls-15{fill:#435267;}.cls-16{fill:#eed646;}.cls-17{fill:#050505;}.cls-20{fill:#69badc;}.cls-21{fill:#5db1ce;}.cls-22{fill:#c1c8cf;}.cls-23{fill:#b0b4b7;}.cls-24{fill:none;}.cls-25{fill:#34445b;}.cls-26{fill:#f86c97;}.cls-27{fill:#f0cd00;}.cls-28{fill:#a7f192;}.cls-29{fill:#f8afee;}.cls-30{opacity:0.06;}.cls-31{fill:#d1d1d1;}.cls-32{fill:#b5b5b5;}.cls-33{fill:#d3d3d3;}.cls-34{fill:#c1c1c1;}.cls-35{fill:#556b87;}.cls-36{fill:#364b65;}.cls-37{fill:#617991;}.cls-38{fill:#495d7a;}.cls-39{fill:#70ea4e;}</style></defs><title>270</title><g id="Layer_2" data-name="Layer 2"><g id="Layer_1-2" data-name="Layer 1"><path class="cls-1" d="M550.08,625.31c.84-18.09.87-36.25.47-54.35-.65-29.32-1.49-60.53-10.29-88.75-3.15-10.1-8-22.16-18.85-26-6.08-2.15-8.69,7.51-2.66,9.64,1.88.67,4.46,3.16,6.27,6a55.09,55.09,0,0,1,5.6,13c4,12.69,5.85,26,7.21,39.22,2.84,27.43,3.27,55.14,2.78,82.7-.11,6.17-.25,12.35-.53,18.52-.3,6.43,9.7,6.42,10,0Z"/><path class="cls-2" d="M588.88,693.38H494.8c-16.36,0-29.62-10.58-29.62-23.63l14.55-99.57,127.59.89,11.19,98.68C618.51,682.8,605.24,693.38,588.88,693.38Z"/><path class="cls-3" d="M618.5,668.75c0,13.05-13.26,23.63-29.62,23.63H494.8c-16.36,0-29.63-10.58-29.63-23.63l2.38-16.3a25.73,25.73,0,0,1,6.83,2.25c6.79,3.35,12.37,8.77,19.14,12.14,8.67,4.31,18.63,5,28.3,5.53l58.41,3.48c13.76.81,22.15-3.73,22.44-18.32.4-19.91,3.8-39.62,3.35-59.5l1.29-28Z"/><ellipse class="cls-4" cx="472.99" cy="421.09" rx="29.46" ry="60.71" transform="translate(-155.39 499.69) rotate(-48.81)"/><path class="cls-1" d="M475.78,418.46a54.76,54.76,0,0,1-1.23-6.82c-.29-2.52-1.25-8.28,1.43-9.79,1.68-.95.17-3.54-1.51-2.59-5.83,3.28-2.84,14.9-1.58,20,.46,1.87,3.36,1.08,2.89-.8Z"/><path class="cls-1" d="M493.29,434.09a54.76,54.76,0,0,1-1.23-6.82c-.29-2.52-1.25-8.28,1.43-9.79,1.68-.95.17-3.54-1.51-2.59-5.83,3.28-2.84,14.9-1.58,20,.46,1.87,3.36,1.08,2.89-.8Z"/><path class="cls-1" d="M475.74,417.62c-5.25-.07-17.22-.33-19.07,6.12a1.5,1.5,0,0,0,2.89.8c.85-3,7-3.34,9.48-3.6a57.08,57.08,0,0,1,6.7-.32,1.5,1.5,0,0,0,0-3Z"/><path class="cls-1" d="M494.15,436.36c-5.25-.07-17.22-.33-19.07,6.12a1.5,1.5,0,0,0,2.89.8c.85-3,7-3.34,9.48-3.6a57.08,57.08,0,0,1,6.7-.32,1.5,1.5,0,0,0,0-3Z"/><path class="cls-5" d="M507.68,419.18c8.61,23.34,2.81,45.66-17.62,46.28,11.07,2.7,20.38,1.46,25.49-4.38C523.14,452.4,519.44,435.91,507.68,419.18Z"/><path class="cls-1" d="M516.91,464.44c-.42-.51-42-51.58-68.11-61.59l1.07-2.8c11.31,4.34,26.44,16.19,45,35.23,13.73,14.11,24.31,27.14,24.42,27.27Z"/><path class="cls-1" d="M502.7,470.22A48.46,48.46,0,0,1,490,468.34C477.37,464.88,463.53,457,451,446c-25.76-22.54-27.09-62.29-27.13-64l-.06-2.31,2.29-.25c1.67-.18,41.24-4.13,67,18.42h0c12.48,10.92,22.17,23.59,27.27,35.67,5.36,12.67,5.09,23.33-.76,30C515.83,468,510,470.22,502.7,470.22Zm-73.64-85.9c.71,8.81,4.65,39.9,25.28,58,11.92,10.43,25.06,18,37,21.25,11.32,3.1,20,2,24.56-3.2s4.49-14-.08-24.77c-4.82-11.4-14-23.42-26-33.86h0C469.23,383.65,437.89,383.87,429.06,384.32Z"/><circle class="cls-6" cx="451.12" cy="412.17" r="12.5"/><ellipse class="cls-4" cx="573.2" cy="428.96" rx="60.71" ry="29.46" transform="translate(-127.1 577.78) rotate(-48.81)"/><path class="cls-1" d="M575.83,431.75a54.76,54.76,0,0,1,6.82-1.23c2.52-.29,8.28-1.25,9.79,1.43.95,1.68,3.54.17,2.59-1.51-3.28-5.83-14.9-2.84-20-1.58-1.87.46-1.08,3.36.8,2.89Z"/><path class="cls-1" d="M560.21,449.26A54.76,54.76,0,0,1,567,448c2.52-.29,8.28-1.25,9.79,1.43.95,1.68,3.54.17,2.59-1.51-3.28-5.83-14.9-2.84-20-1.58-1.87.46-1.08,3.36.8,2.89Z"/><path class="cls-1" d="M576.68,431.71c.07-5.25.33-17.22-6.12-19.07a1.5,1.5,0,0,0-.8,2.89c3,.85,3.34,7,3.6,9.48a57.08,57.08,0,0,1,.32,6.7,1.5,1.5,0,0,0,3,0Z"/><path class="cls-1" d="M558.93,450.12c.07-5.25.33-17.22-6.12-19.07a1.5,1.5,0,0,0-.8,2.89c3,.85,3.34,7,3.6,9.48a57.08,57.08,0,0,1,.32,6.7,1.5,1.5,0,0,0,3,0Z"/><path class="cls-5" d="M575.12,463.65c-23.34,8.61-45.66,2.81-46.28-17.62-2.7,11.07-1.46,20.38,4.38,25.49C541.89,479.11,558.39,475.41,575.12,463.65Z"/><path class="cls-1" d="M531.74,475.21l-1.89-2.33c.51-.42,51.58-42,61.59-68.11l2.8,1.07c-4.34,11.31-16.19,26.44-35.23,45C544.9,464.52,531.87,475.1,531.74,475.21Z"/><path class="cls-1" d="M544.2,480.23c-5.32,0-10-1.48-13.52-4.6-6.68-5.85-8.36-16.37-4.73-29.64,3.46-12.65,11.38-26.49,22.31-39,22.54-25.76,62.29-27.09,64-27.13l2.31-.06.25,2.29c.18,1.67,4.13,41.24-18.42,67h0C579.18,468.74,559,480.23,544.2,480.23ZM610,385c-8.81.71-39.9,4.65-58,25.28-10.44,11.92-18,25.06-21.25,37-3.1,11.32-2,20,3.2,24.56,11,9.62,37.84-2.3,58.62-26C610.65,425.2,610.43,393.86,610,385Z"/><circle class="cls-6" cx="582.13" cy="407.09" r="12.5"/><ellipse class="cls-4" cx="598.09" cy="493.14" rx="60.71" ry="29.46" transform="translate(-160.44 333.35) rotate(-27.61)"/><path class="cls-1" d="M599.69,496.7c1.52.19,4.6.8,6.59,1.31,2.16.56,8.27,1.8,8.65,4.64.25,1.89,3.26,1.91,3,0-.93-6.9-12.8-8.25-18.24-8.95-1.91-.25-1.89,2.76,0,3Z"/><path class="cls-1" d="M581.15,506.45c1.52.19,4.6.8,6.59,1.31,2.16.56,8.27,1.8,8.65,4.64.25,1.89,3.26,1.91,3,0-.93-6.9-12.8-8.25-18.24-8.95-1.91-.25-1.89,2.76,0,3Z"/><path class="cls-1" d="M598,497.75c2-5,6.43-15.78,1-19.94-1.53-1.17-3,1.43-1.51,2.59,2.38,1.82.34,8-.29,10.28a57.51,57.51,0,0,1-2.1,6.27c-.72,1.79,2.18,2.57,2.89.8Z"/><path class="cls-1" d="M576.25,507.2c2-5,6.43-15.78,1-19.94-1.53-1.17-3,1.43-1.51,2.59,2.38,1.82.34,8-.29,10.28a57.51,57.51,0,0,1-2.1,6.27c-.72,1.79,2.18,2.57,2.89.8Z"/><path class="cls-5" d="M587.34,526.18c-24.88-.41-43.59-13.89-36.77-33.16-6.52,9.35-8.73,18.47-5.13,25.35C550.77,528.58,567.48,531.1,587.34,526.18Z"/><path class="cls-1" d="M542.71,521.27l-.92-2.86c.63-.2,63.29-20.52,82.05-41.23l2.22,2c-8.13,9-24.65,18.79-49.1,29.17C558.85,516.06,542.87,521.22,542.71,521.27Z"/><path class="cls-1" d="M567.4,532.37c-12.57,0-21.55-4-25.39-11.32-8.18-15.63,9.83-40.64,41-56.94,30.14-15.76,67.47-2.7,69-2.14l1.74.62-.48,1.78c-.44,1.61-11,39.73-41.14,55.49h0c-14.63,7.65-29.87,12.08-42.9,12.48Zm50-71.92c-10.5,0-22.07,1.74-32.54,7.21-28.2,14.75-46.19,38.35-39.29,51.54,3.27,6.26,11.66,9.52,23.58,9.15,12.44-.37,27.06-4.64,41.17-12h0c25-13.06,36.09-43.42,38.58-51.17A113.41,113.41,0,0,0,617.39,460.44Z"/><circle class="cls-6" cx="614.32" cy="475.98" r="12.5" transform="translate(-51.57 876.64) rotate(-68.8)"/><ellipse class="cls-4" cx="575.82" cy="538.98" rx="29.39" ry="14.26" transform="translate(-184.22 328.24) rotate(-27.61)"/><path class="cls-1" d="M576.59,540.52a31.54,31.54,0,0,1,3.45.69c1.1.29,4,.92,4.12,2.37.07.68,1.16.69,1.08,0-.21-1.91-2.54-2.69-4.1-3.18a26.77,26.77,0,0,0-4.55-1c-.69-.09-.68,1,0,1.08Z"/><path class="cls-1" d="M566.65,545.24a31.54,31.54,0,0,1,3.45.69c1.1.29,4,.92,4.12,2.37.07.68,1.16.69,1.08,0-.21-1.91-2.54-2.69-4.1-3.18a26.77,26.77,0,0,0-4.55-1c-.69-.09-.68,1,0,1.08Z"/><path class="cls-1" d="M576.58,541.17a25.67,25.67,0,0,0,1.36-4.44c.32-1.57.74-3.91-.78-5-.57-.41-1.11.53-.55.93,1.22.87.33,3.75,0,4.87a27.54,27.54,0,0,1-1.1,3.35c-.26.64.78.92,1,.29Z"/><path class="cls-1" d="M565.07,545.74a25.67,25.67,0,0,0,1.36-4.44c.32-1.57.74-3.91-.78-5-.57-.41-1.11.53-.55.93,1.22.87.33,3.75,0,4.87a27.54,27.54,0,0,1-1.1,3.35c-.26.64.78.92,1,.29Z"/><path class="cls-5" d="M570.61,555c-12-.2-21.1-6.73-17.8-16.06-3.16,4.53-4.23,8.94-2.49,12.27C552.91,556.14,561,557.36,570.61,555Z"/><path class="cls-1" d="M549.07,553c3.78-1.22,7.5-2.6,11.19-4.05a138,138,0,0,0,20.51-9.66,38.55,38.55,0,0,0,8.82-6.74c.94-1-.59-2.56-1.53-1.53a34.72,34.72,0,0,1-7.53,5.88,99.58,99.58,0,0,1-9.89,5.27,196.45,196.45,0,0,1-18.31,7.43c-1.27.45-2.55.89-3.83,1.31s-.75,2.51.57,2.08Z"/><path class="cls-1" d="M581.09,549.2A53.14,53.14,0,0,1,568,554a27.56,27.56,0,0,1-10.6.54,11.55,11.55,0,0,1-3.68-1.25,5.82,5.82,0,0,1-2.2-2.09,5.53,5.53,0,0,1-.68-2.45q0-.43,0-.87c0-.14.1-.82,0-.42a12.61,12.61,0,0,1,.45-1.84,22,22,0,0,1,4.54-7.32,45.21,45.21,0,0,1,8.77-7.5,37.55,37.55,0,0,1,11.13-5.36,38.27,38.27,0,0,1,11.26-1.1,47.26,47.26,0,0,1,14,2.52l-1.51-2.66c-.17.63-.38,1.25-.59,1.86s-.49,1.37-.76,2l-.25.62-.16.4-.22.52-.36.81a46.31,46.31,0,0,1-8.27,12.68,30.26,30.26,0,0,1-7.83,6c-2.46,1.3-.28,5,2.18,3.73,9.64-5.11,16-15,19.61-25,.3-.83.59-1.67.82-2.52a2.21,2.21,0,0,0-1.51-2.66,51.56,51.56,0,0,0-13.79-2.61,44.46,44.46,0,0,0-12.27.83,39.18,39.18,0,0,0-12.73,5.56c-6.51,4.15-13.14,9.84-15.94,17.26a11.72,11.72,0,0,0-.31,8.19,10.81,10.81,0,0,0,6.94,6.21c4.14,1.42,8.78,1.15,13,.43a55.27,55.27,0,0,0,16.16-5.67C585.74,551.65,583.56,547.92,581.09,549.2Z"/><circle class="cls-6" cx="583.68" cy="530.67" r="6.05" transform="translate(-122.14 882.98) rotate(-68.8)"/><ellipse class="cls-4" cx="517.8" cy="540.77" rx="14.26" ry="29.39" transform="translate(-201.36 748.99) rotate(-62.39)"/><path class="cls-1" d="M517,542.31a31.54,31.54,0,0,0-3.45.69c-1.1.29-4,.92-4.12,2.37-.07.68-1.16.69-1.08,0,.21-1.91,2.54-2.69,4.1-3.18a26.77,26.77,0,0,1,4.55-1c.69-.09.68,1,0,1.08Z"/><path class="cls-1" d="M527,547a31.54,31.54,0,0,0-3.45.69c-1.1.29-4,.92-4.12,2.37-.07.68-1.16.69-1.08,0,.21-1.91,2.54-2.69,4.1-3.18a26.77,26.77,0,0,1,4.55-1c.69-.09.68,1,0,1.08Z"/><path class="cls-1" d="M517,543a25.67,25.67,0,0,1-1.36-4.44c-.32-1.57-.74-3.91.78-5,.57-.41,1.11.53.55.93-1.22.87-.33,3.75,0,4.87a27.54,27.54,0,0,0,1.1,3.35c.26.64-.78.92-1,.29Z"/><path class="cls-1" d="M528.56,547.53a25.67,25.67,0,0,1-1.36-4.44c-.32-1.57-.74-3.91.78-5,.57-.41,1.11.53.55.93-1.22.87-.33,3.75,0,4.87a27.54,27.54,0,0,0,1.1,3.35c.26.64-.78.92-1,.29Z"/><path class="cls-5" d="M523,556.76c12-.2,21.1-6.73,17.8-16.06,3.16,4.53,4.23,8.94,2.49,12.27C540.72,557.93,532.62,559.15,523,556.76Z"/><path class="cls-1" d="M544.55,554.74c-3.78-1.22-7.5-2.6-11.19-4.05A138,138,0,0,1,512.85,541a38.55,38.55,0,0,1-8.82-6.74c-.94-1,.59-2.56,1.53-1.53a34.72,34.72,0,0,0,7.53,5.88,99.58,99.58,0,0,0,9.89,5.27,196.45,196.45,0,0,0,18.31,7.43c1.27.45,2.55.89,3.83,1.31s.75,2.51-.57,2.08Z"/><path class="cls-1" d="M512.53,551a53.14,53.14,0,0,0,13.07,4.83,27.56,27.56,0,0,0,10.6.54,11.55,11.55,0,0,0,3.68-1.25,5.82,5.82,0,0,0,2.2-2.09,5.53,5.53,0,0,0,.68-2.45q0-.43,0-.87c0-.14-.1-.82,0-.42a12.61,12.61,0,0,0-.45-1.84,22,22,0,0,0-4.54-7.32,45.21,45.21,0,0,0-8.77-7.5,37.55,37.55,0,0,0-11.13-5.36,38.27,38.27,0,0,0-11.26-1.1,47.26,47.26,0,0,0-14,2.52l1.51-2.66c.17.63.38,1.25.59,1.86s.49,1.37.76,2l.25.62.16.4.22.52.36.81A46.31,46.31,0,0,0,504.71,545a30.26,30.26,0,0,0,7.83,6c2.46,1.3.28,5-2.18,3.73-9.64-5.11-16-15-19.61-25-.3-.83-.59-1.67-.82-2.52a2.21,2.21,0,0,1,1.51-2.66,51.56,51.56,0,0,1,13.79-2.61,44.46,44.46,0,0,1,12.27.83,39.18,39.18,0,0,1,12.73,5.56c6.51,4.15,13.14,9.84,15.94,17.26a11.72,11.72,0,0,1,.31,8.19,10.81,10.81,0,0,1-6.94,6.21c-4.14,1.42-8.78,1.15-13,.43a55.27,55.27,0,0,1-16.16-5.67C507.88,553.43,510.06,549.7,512.53,551Z"/><circle class="cls-6" cx="509.95" cy="532.46" r="6.05" transform="translate(-158.02 220.41) rotate(-21.2)"/><ellipse class="cls-4" cx="490.4" cy="502.75" rx="29.46" ry="60.71" transform="matrix(0.43, -0.9, 0.9, 0.43, -174.82, 728)"/><path class="cls-1" d="M492.38,499.49a55.18,55.18,0,0,1-3-6.25c-.95-2.32-3.43-7.65-1.27-9.8a1.5,1.5,0,0,0-2.12-2.12c-4.75,4.74,1.24,15.09,3.83,19.68a1.5,1.5,0,0,0,2.59-1.51Z"/><path class="cls-1" d="M513.5,510.09a55.18,55.18,0,0,1-3-6.25c-.95-2.32-3.43-7.65-1.27-9.8a1.5,1.5,0,0,0-2.12-2.12c-4.75,4.74,1.24,15.09,3.83,19.68a1.5,1.5,0,0,0,2.59-1.51Z"/><path class="cls-1" d="M493.08,499.39c-5,1.33-16.73,4.34-16.72,11a1.5,1.5,0,0,0,3,0c0-3,5.74-5.05,8-6a56.71,56.71,0,0,1,6.52-2.17,1.5,1.5,0,0,0-.8-2.89Z"/><path class="cls-1" d="M514.89,511.76c-5,1.33-16.73,4.34-16.72,11a1.5,1.5,0,0,0,3,0c0-3,5.74-5.05,8-6a56.71,56.71,0,0,1,6.52-2.17,1.5,1.5,0,0,0-.8-2.89Z"/><path class="cls-5" d="M523.29,491.57c14.57,20.16,15,43.22-4.52,49.31,11.39-.38,20-4.08,23.37-11.08C547.12,519.41,539.13,504.52,523.29,491.57Z"/><path class="cls-1" d="M544.36,532.68c-.54-.38-54.35-38.38-82.18-41l.28-3c12.06,1.13,29.82,8.48,52.77,21.83,17,9.9,30.72,19.6,30.86,19.7Z"/><path class="cls-1" d="M519.17,543.18c-13,0-28.21-3.88-43-10.95-30.68-14.69-42.59-52.4-43.08-54l-.54-1.76,1.71-.68c1.55-.62,38.4-15,69.08-.31h0c31.72,15.18,50.59,39.54,43,55.45-3.75,7.83-13.27,12.18-26.83,12.25Zm-81.61-64.33c2.77,7.65,15,37.62,40.37,49.77,14.23,6.81,28.86,10.56,41.24,10.56h.33c11.94-.06,20.19-3.61,23.24-10,6.43-13.43-12.39-36.38-41.1-50.12h0C476.22,466.92,445.25,476.2,437.55,478.85Z"/><circle class="cls-6" cx="466.93" cy="500.04" r="12.5" transform="translate(-117.35 144.11) rotate(-15.61)"/><g class="cls-7"><path class="cls-8" d="M607.84,587.2a89.84,89.84,0,0,1-33,16.87c-13,3.45-26.54,4-40,3.57-12.65-.4-25.47-1.7-37.21-6.42a53.94,53.94,0,0,1-21-14.7l2-13.74,127.59.89Z"/></g><g class="cls-7"><path class="cls-8" d="M605.84,589.15c-9.71,10.48-21,18.35-33,22.66-13,4.63-26.54,5.36-40,4.79-12.65-.54-25.47-2.28-37.21-8.62a57.19,57.19,0,0,1-21-19.74l2-18.45L604.31,571Z"/></g><path class="cls-1" d="M587.21,695.16H493.12c-17.44,0-31.62-11.5-31.62-25.63l0-.29,14.8-101.29,131.1.92,11.4,100.66C618.83,683.66,604.64,695.16,587.21,695.16ZM465.5,669.67c.1,11.86,12.45,21.49,27.62,21.49h94.08c15.19,0,27.55-9.64,27.62-21.52l-11-96.8L479.78,572Z"/><rect class="cls-9" x="162" y="711.84" width="1408.63" height="26" rx="13" ry="13"/><path class="cls-10" d="M1557.15,728.84H177.73c-6.7,0-12.33-4-14.05-9.5a11.66,11.66,0,0,0-.55,3.5c0,7.18,6.54,13,14.6,13H1557.15c8.07,0,14.6-5.82,14.6-13a11.65,11.65,0,0,0-.55-3.5C1569.49,724.82,1563.85,728.84,1557.15,728.84Z"/><path class="cls-11" d="M1557.63,741.84H175a17,17,0,0,1,0-34H1557.63a17,17,0,0,1,0,34ZM175,715.84a9,9,0,0,0,0,18H1557.63a9,9,0,0,0,0-18Z"/><path class="cls-12" d="M663.75,683.84c0-17.12-13.88-21-31-21s-31,3.88-31,21Z"/><path class="cls-11" d="M491.25,697.34h-6c0-17.57-13.46-31.86-30-31.86h-62c-19.85,0-36-17-36-37.86V612.84h6v14.79c0,17.57,13.46,31.86,30,31.86h62C475.11,659.49,491.25,676.47,491.25,697.34Z"/><path class="cls-13" d="M821.5,593.84s-6,58.32-42.63,80.44a2.46,2.46,0,0,0,1.28,4.56h171.7a2.46,2.46,0,0,0,1.28-4.56c-36.63-22.12-42.63-80.44-42.63-80.44"/><path class="cls-14" d="M923.5,641.84H810.16a135.31,135.31,0,0,0,6.07-25h101.2A135.31,135.31,0,0,0,923.5,641.84Z"/><path class="cls-11" d="M951.85,681.84H780.15a5.46,5.46,0,0,1-2.83-10.13c34.9-21.08,41.14-77.61,41.2-78.18l6,.62a157.42,157.42,0,0,1-7.73,32.61c-7.9,22.55-19.88,39.47-34.72,49.08H950c-14.83-9.61-26.81-26.54-34.72-49.08a157.42,157.42,0,0,1-7.73-32.61l6-.62c.06.57,6.3,57.1,41.2,78.18a5.46,5.46,0,0,1-2.83,10.13Z"/><path class="cls-13" d="M572.75,560.3h586.9a12,12,0,0,1,12,12V617a0,0,0,0,1,0,0H560.75a0,0,0,0,1,0,0V572.3A12,12,0,0,1,572.75,560.3Z" transform="translate(1732.39 1177.32) rotate(180)"/><path class="cls-11" d="M1159.64,619.52H572.75a14.52,14.52,0,0,1-14.5-14.5V557.8h615.9V605A14.52,14.52,0,0,1,1159.64,619.52ZM563.25,562.8V605a9.51,9.51,0,0,0,9.5,9.5h586.9a9.51,9.51,0,0,0,9.5-9.5V562.8Z"/><circle class="cls-15" cx="866.03" cy="588.84" r="10"/><path class="cls-11" d="M866.2,600.66a12,12,0,1,1,12-12A12,12,0,0,1,866.2,600.66Zm0-20a8,8,0,1,0,8,8A8,8,0,0,0,866.2,580.66Z"/><rect class="cls-16" x="560.36" y="225.82" width="610.9" height="335.02" rx="11.6" ry="11.6"/><path class="cls-17" d="M1171.49,245.48H561c1.56-11,4.64-19.09,10.6-19.09h587.34C1164.85,226.38,1169.93,234.48,1171.49,245.48Z"/><circle class="cls-18" cx="574.99" cy="236.18" r="2.5"/><circle class="cls-18" cx="1139.99" cy="237.31" r="2.5"/><circle class="cls-18" cx="1102.99" cy="237.18" r="2.5"/><circle class="cls-18" cx="1093.99" cy="237.18" r="2.5"/><circle class="cls-18" cx="1084.99" cy="237.18" r="2.5"/><circle class="cls-18" cx="1075.99" cy="237.18" r="2.5"/><rect class="cls-18" x="1148.49" y="235.05" width="9" height="1"/><rect class="cls-18" x="1148.49" y="236.8" width="9" height="1"/><rect class="cls-18" x="1148.49" y="238.55" width="9" height="1"/><rect class="cls-18" x="1109.49" y="235.05" width="25" height="1"/><rect class="cls-18" x="1109.49" y="236.8" width="25" height="1"/><rect class="cls-18" x="1109.49" y="238.55" width="25" height="1"/><rect class="cls-18" x="680.49" y="235.18" width="17" height="0.75"/><rect class="cls-18" x="680.49" y="236.93" width="17" height="0.75"/><rect class="cls-18" x="680.49" y="238.68" width="17" height="0.75"/><rect class="cls-18" x="656.24" y="235.18" width="17" height="0.75"/><rect class="cls-18" x="656.24" y="236.93" width="17" height="0.75"/><rect class="cls-18" x="656.24" y="238.68" width="17" height="0.75"/><rect class="cls-18" x="631.99" y="235.18" width="17" height="0.75"/><rect class="cls-18" x="631.99" y="236.93" width="17" height="0.75"/><rect class="cls-18" x="631.99" y="238.68" width="17" height="0.75"/><rect class="cls-18" x="607.74" y="235.18" width="17" height="0.75"/><rect class="cls-18" x="607.74" y="236.93" width="17" height="0.75"/><rect class="cls-18" x="607.74" y="238.68" width="17" height="0.75"/><rect class="cls-18" x="583.49" y="235.18" width="17" height="0.75"/><rect class="cls-18" x="583.49" y="236.93" width="17" height="0.75"/><rect class="cls-18" x="583.49" y="238.68" width="17" height="0.75"/><g id="Layer_1-3" data-name="Layer 1"><path class="cls-11" d="M854.83,419.21h6.83v19.15c0,8.63-4.14,11.64-10.74,11.64a17.92,17.92,0,0,1-5-.72l.76-5.53a11.27,11.27,0,0,0,3.51.54c2.88,0,4.68-1.3,4.68-6Z"/><path class="cls-11" d="M867.59,442.5a17.31,17.31,0,0,0,7.6,1.89c3.15,0,4.81-1.3,4.81-3.33,0-1.84-1.44-3-5.08-4.23-5-1.8-8.36-4.59-8.36-9,0-5.17,4.36-9.08,11.46-9.08a17.73,17.73,0,0,1,7.73,1.53l-1.53,5.48a14.17,14.17,0,0,0-6.29-1.44c-3,0-4.41,1.39-4.41,2.92,0,1.93,1.66,2.79,5.62,4.32,5.35,2,7.82,4.77,7.82,9.08,0,5.08-3.87,9.4-12.18,9.4a19.76,19.76,0,0,1-8.59-1.89Z"/></g><g class="cls-19"><polygon class="cls-18" points="839.1 226.04 703.47 561.84 640.28 561.84 790.62 226.04 839.1 226.04"/><polygon class="cls-18" points="910.25 226.04 779.77 561.84 742.26 561.84 881.71 226.04 910.25 226.04"/></g><path class="cls-11" d="M1173.75,562.84H557.86V237a14.52,14.52,0,0,1,14.5-14.5h586.9a14.52,14.52,0,0,1,14.5,14.5Zm-610.9-5h605.9V237a9.51,9.51,0,0,0-9.5-9.5H572.36a9.51,9.51,0,0,0-9.5,9.5Z"/><rect class="cls-20" x="1113.03" y="269.84" width="29" height="29" rx="6.36" ry="6.36"/><rect class="cls-20" x="1113.03" y="306.84" width="29" height="29" rx="6.36" ry="6.36"/><rect class="cls-20" x="1113.03" y="343.84" width="29" height="29" rx="6.36" ry="6.36"/><rect class="cls-20" x="1113.03" y="380.84" width="29" height="29" rx="6.36" ry="6.36"/><path class="cls-21" d="M1137.08,269.92a6.29,6.29,0,0,1,.43,2.28v16.28a6.38,6.38,0,0,1-6.36,6.36h-16.28a6.31,6.31,0,0,1-.93-.08,6.38,6.38,0,0,0,5.93,4.08h16.28a6.38,6.38,0,0,0,6.36-6.36V276.2A6.38,6.38,0,0,0,1137.08,269.92Z"/><path class="cls-21" d="M1137.08,306.92a6.29,6.29,0,0,1,.43,2.28v16.28a6.38,6.38,0,0,1-6.36,6.36h-16.28a6.31,6.31,0,0,1-.93-.08,6.38,6.38,0,0,0,5.93,4.08h16.28a6.38,6.38,0,0,0,6.36-6.36V313.2A6.38,6.38,0,0,0,1137.08,306.92Z"/><path class="cls-21" d="M1137.08,343.92a6.29,6.29,0,0,1,.43,2.28v16.28a6.38,6.38,0,0,1-6.36,6.36h-16.28a6.31,6.31,0,0,1-.93-.08,6.38,6.38,0,0,0,5.93,4.08h16.28a6.38,6.38,0,0,0,6.36-6.36V350.2A6.38,6.38,0,0,0,1137.08,343.92Z"/><path class="cls-21" d="M1137.08,380.92a6.29,6.29,0,0,1,.43,2.28v16.28a6.38,6.38,0,0,1-6.36,6.36h-16.28a6.31,6.31,0,0,1-.93-.08,6.38,6.38,0,0,0,5.93,4.08h16.28a6.38,6.38,0,0,0,6.36-6.36V387.2A6.38,6.38,0,0,0,1137.08,380.92Z"/><rect class="cls-13" x="765" y="669.84" width="202" height="19" rx="9.5" ry="9.5"/><path class="cls-14" d="M967,679.34a9.53,9.53,0,0,1-9.5,9.5h-53l10.4-19H957.5A9.52,9.52,0,0,1,967,679.34Z"/><path class="cls-11" d="M957.5,691.84h-183a12.5,12.5,0,0,1,0-25h183a12.5,12.5,0,0,1,0,25Zm-183-19a6.5,6.5,0,0,0,0,13h183a6.5,6.5,0,0,0,0-13Z"/><rect class="cls-9" x="4" y="688.84" width="1722.63" height="26" rx="13" ry="13"/><path class="cls-10" d="M1710.14,705.84H23.23c-8.19,0-15.08-4-17.18-9.5a9.73,9.73,0,0,0-.67,3.5c0,7.18,8,13,17.86,13H1710.14c9.86,0,17.86-5.82,17.86-13a9.73,9.73,0,0,0-.67-3.5C1725.22,701.82,1718.34,705.84,1710.14,705.84Z"/><path class="cls-11" d="M1713.63,718.84H17a17,17,0,0,1,0-34H1713.63a17,17,0,0,1,0,34ZM17,692.84a9,9,0,0,0,0,18H1713.63a9,9,0,0,0,0-18Z"/><rect class="cls-22" x="183.75" y="576.84" width="120" height="97"/><rect class="cls-23" x="183.75" y="603.84" width="120" height="37"/><path class="cls-11" d="M307.75,689.84h-128v-105h128Zm-120-8h112v-89h-112Z"/><line class="cls-24" x1="360.21" y1="125.84" x2="345.75" y2="125.84"/><rect class="cls-25" x="-65.67" y="127.31" width="610.9" height="359.28" rx="27.44" ry="27.44" transform="translate(546.73 67.17) rotate(90)"/><rect class="cls-13" x="143.25" y="668.84" width="202" height="19" rx="9.5" ry="9.5"/><path class="cls-14" d="M345.25,678.34a9.53,9.53,0,0,1-9.5,9.5h-53l10.4-19h42.61A9.52,9.52,0,0,1,345.25,678.34Z"/><path class="cls-11" d="M335.75,690.84h-183a12.5,12.5,0,0,1,0-25h183a12.5,12.5,0,0,1,0,25Zm-183-19a6.5,6.5,0,0,0,0,13h183a6.5,6.5,0,0,0,0-13Z"/><path class="cls-26" d="M174.54,52.18H93c-.83,0-1.5-.12-1.5-1.5h0c0-1.38.67-1.5,1.5-1.5h81.58c.83,0,1.5.12,1.5,1.5h0C176,52.06,175.37,52.18,174.54,52.18Z"/><path class="cls-27" d="M149,58.51H92.49c-.57,0-1-.12-1-1.5h0c0-1.38.47-1.5,1-1.5H149c.57,0,1,.12,1,1.5h0C150,58.39,149.57,58.51,149,58.51Z"/><path class="cls-28" d="M151.95,45.84H92.55c-.6,0-1.09-.12-1.09-1.5h0c0-1.38.49-1.5,1.09-1.5h59.4c.6,0,1.09.12,1.09,1.5h0C153,45.72,152.55,45.84,151.95,45.84Z"/><path class="cls-28" d="M216.95,45.84h-59.4c-.6,0-1.09-.12-1.09-1.5h0c0-1.38.49-1.5,1.09-1.5h59.4c.6,0,1.09.12,1.09,1.5h0C218,45.72,217.55,45.84,216.95,45.84Z"/><path class="cls-29" d="M151.95,64.84H92.55c-.6,0-1.09-.12-1.09-1.5h0c0-1.38.49-1.5,1.09-1.5h59.4c.6,0,1.09.12,1.09,1.5h0C153,64.72,152.55,64.84,151.95,64.84Z"/><path class="cls-29" d="M216.95,64.84h-59.4c-.6,0-1.09-.12-1.09-1.5h0c0-1.38.49-1.5,1.09-1.5h59.4c.6,0,1.09.12,1.09,1.5h0C218,64.72,217.55,64.84,216.95,64.84Z"/><path class="cls-26" d="M174.54,132.84H93c-.83,0-1.5-.12-1.5-1.5h0c0-1.38.67-1.5,1.5-1.5h81.58c.83,0,1.5.12,1.5,1.5h0C176,132.72,175.37,132.84,174.54,132.84Z"/><path class="cls-27" d="M149,139.18H92.49c-.57,0-1-.12-1-1.5h0c0-1.38.47-1.5,1-1.5H149c.57,0,1,.12,1,1.5h0C150,139.06,149.57,139.18,149,139.18Z"/><path class="cls-28" d="M151.95,126.51H92.55c-.6,0-1.09-.12-1.09-1.5h0c0-1.38.49-1.5,1.09-1.5h59.4c.6,0,1.09.12,1.09,1.5h0C153,126.39,152.55,126.51,151.95,126.51Z"/><path class="cls-28" d="M216.95,126.51h-59.4c-.6,0-1.09-.12-1.09-1.5h0c0-1.38.49-1.5,1.09-1.5h59.4c.6,0,1.09.12,1.09,1.5h0C218,126.39,217.55,126.51,216.95,126.51Z"/><path class="cls-29" d="M151.95,145.51H92.55c-.6,0-1.09-.12-1.09-1.5h0c0-1.38.49-1.5,1.09-1.5h59.4c.6,0,1.09.12,1.09,1.5h0C153,145.39,152.55,145.51,151.95,145.51Z"/><path class="cls-29" d="M216.95,145.51h-59.4c-.6,0-1.09-.12-1.09-1.5h0c0-1.38.49-1.5,1.09-1.5h59.4c.6,0,1.09.12,1.09,1.5h0C218,145.39,217.55,145.51,216.95,145.51Z"/><path class="cls-26" d="M174.54,173.18H93c-.83,0-1.5-.12-1.5-1.5h0c0-1.38.67-1.5,1.5-1.5h81.58c.83,0,1.5.12,1.5,1.5h0C176,173.06,175.37,173.18,174.54,173.18Z"/><path class="cls-27" d="M149,179.51H92.49c-.57,0-1-.12-1-1.5h0c0-1.38.47-1.5,1-1.5H149c.57,0,1,.12,1,1.5h0C150,179.39,149.57,179.51,149,179.51Z"/><path class="cls-28" d="M151.95,166.84H92.55c-.6,0-1.09-.12-1.09-1.5h0c0-1.38.49-1.5,1.09-1.5h59.4c.6,0,1.09.12,1.09,1.5h0C153,166.72,152.55,166.84,151.95,166.84Z"/><path class="cls-28" d="M216.95,166.84h-59.4c-.6,0-1.09-.12-1.09-1.5h0c0-1.38.49-1.5,1.09-1.5h59.4c.6,0,1.09.12,1.09,1.5h0C218,166.72,217.55,166.84,216.95,166.84Z"/><path class="cls-29" d="M151.95,185.84H92.55c-.6,0-1.09-.12-1.09-1.5h0c0-1.38.49-1.5,1.09-1.5h59.4c.6,0,1.09.12,1.09,1.5h0C153,185.72,152.55,185.84,151.95,185.84Z"/><path class="cls-29" d="M216.95,185.84h-59.4c-.6,0-1.09-.12-1.09-1.5h0c0-1.38.49-1.5,1.09-1.5h59.4c.6,0,1.09.12,1.09,1.5h0C218,185.72,217.55,185.84,216.95,185.84Z"/><path class="cls-26" d="M174.54,92.51H93c-.83,0-1.5-.12-1.5-1.5h0c0-1.38.67-1.5,1.5-1.5h81.58c.83,0,1.5.12,1.5,1.5h0C176,92.39,175.37,92.51,174.54,92.51Z"/><path class="cls-27" d="M149,98.84H92.49c-.57,0-1-.12-1-1.5h0c0-1.38.47-1.5,1-1.5H149c.57,0,1,.12,1,1.5h0C150,98.72,149.57,98.84,149,98.84Z"/><path class="cls-28" d="M151.95,86.18H92.55c-.6,0-1.09-.12-1.09-1.5h0c0-1.38.49-1.5,1.09-1.5h59.4c.6,0,1.09.12,1.09,1.5h0C153,86.06,152.55,86.18,151.95,86.18Z"/><path class="cls-28" d="M216.95,86.18h-59.4c-.6,0-1.09-.12-1.09-1.5h0c0-1.38.49-1.5,1.09-1.5h59.4c.6,0,1.09.12,1.09,1.5h0C218,86.06,217.55,86.18,216.95,86.18Z"/><path class="cls-29" d="M151.95,105.18H92.55c-.6,0-1.09-.12-1.09-1.5h0c0-1.38.49-1.5,1.09-1.5h59.4c.6,0,1.09.12,1.09,1.5h0C153,105.06,152.55,105.18,151.95,105.18Z"/><path class="cls-29" d="M216.95,105.18h-59.4c-.6,0-1.09-.12-1.09-1.5h0c0-1.38.49-1.5,1.09-1.5h59.4c.6,0,1.09.12,1.09,1.5h0C218,105.06,217.55,105.18,216.95,105.18Z"/><path class="cls-26" d="M174.54,229.18H93c-.83,0-1.5-.12-1.5-1.5h0c0-1.38.67-1.5,1.5-1.5h81.58c.83,0,1.5.12,1.5,1.5h0C176,229.06,175.37,229.18,174.54,229.18Z"/><path class="cls-27" d="M149,235.51H92.49c-.57,0-1-.12-1-1.5h0c0-1.38.47-1.5,1-1.5H149c.57,0,1,.12,1,1.5h0C150,235.39,149.57,235.51,149,235.51Z"/><path class="cls-28" d="M151.95,222.84H92.55c-.6,0-1.09-.12-1.09-1.5h0c0-1.38.49-1.5,1.09-1.5h59.4c.6,0,1.09.12,1.09,1.5h0C153,222.72,152.55,222.84,151.95,222.84Z"/><path class="cls-28" d="M216.95,222.84h-59.4c-.6,0-1.09-.12-1.09-1.5h0c0-1.38.49-1.5,1.09-1.5h59.4c.6,0,1.09.12,1.09,1.5h0C218,222.72,217.55,222.84,216.95,222.84Z"/><path class="cls-29" d="M151.95,241.84H92.55c-.6,0-1.09-.12-1.09-1.5h0c0-1.38.49-1.5,1.09-1.5h59.4c.6,0,1.09.12,1.09,1.5h0C153,241.72,152.55,241.84,151.95,241.84Z"/><path class="cls-29" d="M216.95,241.84h-59.4c-.6,0-1.09-.12-1.09-1.5h0c0-1.38.49-1.5,1.09-1.5h59.4c.6,0,1.09.12,1.09,1.5h0C218,241.72,217.55,241.84,216.95,241.84Z"/><path class="cls-26" d="M174.54,309.84H93c-.83,0-1.5-.12-1.5-1.5h0c0-1.38.67-1.5,1.5-1.5h81.58c.83,0,1.5.12,1.5,1.5h0C176,309.72,175.37,309.84,174.54,309.84Z"/><path class="cls-27" d="M149,316.18H92.49c-.57,0-1-.12-1-1.5h0c0-1.38.47-1.5,1-1.5H149c.57,0,1,.12,1,1.5h0C150,316.06,149.57,316.18,149,316.18Z"/><path class="cls-28" d="M151.95,303.51H92.55c-.6,0-1.09-.12-1.09-1.5h0c0-1.38.49-1.5,1.09-1.5h59.4c.6,0,1.09.12,1.09,1.5h0C153,303.39,152.55,303.51,151.95,303.51Z"/><path class="cls-28" d="M216.95,303.51h-59.4c-.6,0-1.09-.12-1.09-1.5h0c0-1.38.49-1.5,1.09-1.5h59.4c.6,0,1.09.12,1.09,1.5h0C218,303.39,217.55,303.51,216.95,303.51Z"/><path class="cls-29" d="M151.95,322.51H92.55c-.6,0-1.09-.12-1.09-1.5h0c0-1.38.49-1.5,1.09-1.5h59.4c.6,0,1.09.12,1.09,1.5h0C153,322.39,152.55,322.51,151.95,322.51Z"/><path class="cls-29" d="M216.95,322.51h-59.4c-.6,0-1.09-.12-1.09-1.5h0c0-1.38.49-1.5,1.09-1.5h59.4c.6,0,1.09.12,1.09,1.5h0C218,322.39,217.55,322.51,216.95,322.51Z"/><path class="cls-26" d="M174.54,350.18H93c-.83,0-1.5-.12-1.5-1.5h0c0-1.38.67-1.5,1.5-1.5h81.58c.83,0,1.5.12,1.5,1.5h0C176,350.06,175.37,350.18,174.54,350.18Z"/><path class="cls-27" d="M149,356.51H92.49c-.57,0-1-.12-1-1.5h0c0-1.38.47-1.5,1-1.5H149c.57,0,1,.12,1,1.5h0C150,356.39,149.57,356.51,149,356.51Z"/><path class="cls-28" d="M151.95,343.84H92.55c-.6,0-1.09-.12-1.09-1.5h0c0-1.38.49-1.5,1.09-1.5h59.4c.6,0,1.09.12,1.09,1.5h0C153,343.72,152.55,343.84,151.95,343.84Z"/><path class="cls-28" d="M216.95,343.84h-59.4c-.6,0-1.09-.12-1.09-1.5h0c0-1.38.49-1.5,1.09-1.5h59.4c.6,0,1.09.12,1.09,1.5h0C218,343.72,217.55,343.84,216.95,343.84Z"/><path class="cls-29" d="M151.95,362.84H92.55c-.6,0-1.09-.12-1.09-1.5h0c0-1.38.49-1.5,1.09-1.5h59.4c.6,0,1.09.12,1.09,1.5h0C153,362.72,152.55,362.84,151.95,362.84Z"/><path class="cls-29" d="M216.95,362.84h-59.4c-.6,0-1.09-.12-1.09-1.5h0c0-1.38.49-1.5,1.09-1.5h59.4c.6,0,1.09.12,1.09,1.5h0C218,362.72,217.55,362.84,216.95,362.84Z"/><path class="cls-26" d="M174.54,269.51H93c-.83,0-1.5-.12-1.5-1.5h0c0-1.38.67-1.5,1.5-1.5h81.58c.83,0,1.5.12,1.5,1.5h0C176,269.39,175.37,269.51,174.54,269.51Z"/><path class="cls-27" d="M149,275.84H92.49c-.57,0-1-.12-1-1.5h0c0-1.38.47-1.5,1-1.5H149c.57,0,1,.12,1,1.5h0C150,275.72,149.57,275.84,149,275.84Z"/><path class="cls-28" d="M151.95,263.18H92.55c-.6,0-1.09-.12-1.09-1.5h0c0-1.38.49-1.5,1.09-1.5h59.4c.6,0,1.09.12,1.09,1.5h0C153,263.06,152.55,263.18,151.95,263.18Z"/><path class="cls-28" d="M216.95,263.18h-59.4c-.6,0-1.09-.12-1.09-1.5h0c0-1.38.49-1.5,1.09-1.5h59.4c.6,0,1.09.12,1.09,1.5h0C218,263.06,217.55,263.18,216.95,263.18Z"/><path class="cls-29" d="M151.95,282.18H92.55c-.6,0-1.09-.12-1.09-1.5h0c0-1.38.49-1.5,1.09-1.5h59.4c.6,0,1.09.12,1.09,1.5h0C153,282.06,152.55,282.18,151.95,282.18Z"/><path class="cls-29" d="M216.95,282.18h-59.4c-.6,0-1.09-.12-1.09-1.5h0c0-1.38.49-1.5,1.09-1.5h59.4c.6,0,1.09.12,1.09,1.5h0C218,282.06,217.55,282.18,216.95,282.18Z"/><path class="cls-26" d="M174.54,406.18H93c-.83,0-1.5-.12-1.5-1.5h0c0-1.38.67-1.5,1.5-1.5h81.58c.83,0,1.5.12,1.5,1.5h0C176,406.06,175.37,406.18,174.54,406.18Z"/><path class="cls-27" d="M149,412.51H92.49c-.57,0-1-.12-1-1.5h0c0-1.38.47-1.5,1-1.5H149c.57,0,1,.12,1,1.5h0C150,412.39,149.57,412.51,149,412.51Z"/><path class="cls-28" d="M151.95,399.84H92.55c-.6,0-1.09-.12-1.09-1.5h0c0-1.38.49-1.5,1.09-1.5h59.4c.6,0,1.09.12,1.09,1.5h0C153,399.72,152.55,399.84,151.95,399.84Z"/><path class="cls-28" d="M216.95,399.84h-59.4c-.6,0-1.09-.12-1.09-1.5h0c0-1.38.49-1.5,1.09-1.5h59.4c.6,0,1.09.12,1.09,1.5h0C218,399.72,217.55,399.84,216.95,399.84Z"/><path class="cls-29" d="M151.95,418.84H92.55c-.6,0-1.09-.12-1.09-1.5h0c0-1.38.49-1.5,1.09-1.5h59.4c.6,0,1.09.12,1.09,1.5h0C153,418.72,152.55,418.84,151.95,418.84Z"/><path class="cls-29" d="M216.95,418.84h-59.4c-.6,0-1.09-.12-1.09-1.5h0c0-1.38.49-1.5,1.09-1.5h59.4c.6,0,1.09.12,1.09,1.5h0C218,418.72,217.55,418.84,216.95,418.84Z"/><path class="cls-26" d="M174.54,486.84H93c-.83,0-1.5-.12-1.5-1.5h0c0-1.38.67-1.5,1.5-1.5h81.58c.83,0,1.5.12,1.5,1.5h0C176,486.72,175.37,486.84,174.54,486.84Z"/><path class="cls-27" d="M149,493.18H92.49c-.57,0-1-.12-1-1.5h0c0-1.38.47-1.5,1-1.5H149c.57,0,1,.12,1,1.5h0C150,493.06,149.57,493.18,149,493.18Z"/><path class="cls-28" d="M151.95,480.51H92.55c-.6,0-1.09-.12-1.09-1.5h0c0-1.38.49-1.5,1.09-1.5h59.4c.6,0,1.09.12,1.09,1.5h0C153,480.39,152.55,480.51,151.95,480.51Z"/><path class="cls-28" d="M216.95,480.51h-59.4c-.6,0-1.09-.12-1.09-1.5h0c0-1.38.49-1.5,1.09-1.5h59.4c.6,0,1.09.12,1.09,1.5h0C218,480.39,217.55,480.51,216.95,480.51Z"/><path class="cls-29" d="M151.95,499.51H92.55c-.6,0-1.09-.12-1.09-1.5h0c0-1.38.49-1.5,1.09-1.5h59.4c.6,0,1.09.12,1.09,1.5h0C153,499.39,152.55,499.51,151.95,499.51Z"/><path class="cls-29" d="M216.95,499.51h-59.4c-.6,0-1.09-.12-1.09-1.5h0c0-1.38.49-1.5,1.09-1.5h59.4c.6,0,1.09.12,1.09,1.5h0C218,499.39,217.55,499.51,216.95,499.51Z"/><path class="cls-26" d="M174.54,527.18H93c-.83,0-1.5-.12-1.5-1.5h0c0-1.38.67-1.5,1.5-1.5h81.58c.83,0,1.5.12,1.5,1.5h0C176,527.06,175.37,527.18,174.54,527.18Z"/><path class="cls-27" d="M149,533.51H92.49c-.57,0-1-.12-1-1.5h0c0-1.38.47-1.5,1-1.5H149c.57,0,1,.12,1,1.5h0C150,533.39,149.57,533.51,149,533.51Z"/><path class="cls-28" d="M151.95,520.84H92.55c-.6,0-1.09-.12-1.09-1.5h0c0-1.38.49-1.5,1.09-1.5h59.4c.6,0,1.09.12,1.09,1.5h0C153,520.72,152.55,520.84,151.95,520.84Z"/><path class="cls-28" d="M216.95,520.84h-59.4c-.6,0-1.09-.12-1.09-1.5h0c0-1.38.49-1.5,1.09-1.5h59.4c.6,0,1.09.12,1.09,1.5h0C218,520.72,217.55,520.84,216.95,520.84Z"/><path class="cls-29" d="M151.95,539.84H92.55c-.6,0-1.09-.12-1.09-1.5h0c0-1.38.49-1.5,1.09-1.5h59.4c.6,0,1.09.12,1.09,1.5h0C153,539.72,152.55,539.84,151.95,539.84Z"/><path class="cls-29" d="M216.95,539.84h-59.4c-.6,0-1.09-.12-1.09-1.5h0c0-1.38.49-1.5,1.09-1.5h59.4c.6,0,1.09.12,1.09,1.5h0C218,539.72,217.55,539.84,216.95,539.84Z"/><path class="cls-26" d="M174.54,446.51H93c-.83,0-1.5-.12-1.5-1.5h0c0-1.38.67-1.5,1.5-1.5h81.58c.83,0,1.5.12,1.5,1.5h0C176,446.39,175.37,446.51,174.54,446.51Z"/><path class="cls-27" d="M149,452.84H92.49c-.57,0-1-.12-1-1.5h0c0-1.38.47-1.5,1-1.5H149c.57,0,1,.12,1,1.5h0C150,452.72,149.57,452.84,149,452.84Z"/><path class="cls-28" d="M151.95,440.18H92.55c-.6,0-1.09-.12-1.09-1.5h0c0-1.38.49-1.5,1.09-1.5h59.4c.6,0,1.09.12,1.09,1.5h0C153,440.06,152.55,440.18,151.95,440.18Z"/><path class="cls-28" d="M216.95,440.18h-59.4c-.6,0-1.09-.12-1.09-1.5h0c0-1.38.49-1.5,1.09-1.5h59.4c.6,0,1.09.12,1.09,1.5h0C218,440.06,217.55,440.18,216.95,440.18Z"/><path class="cls-29" d="M151.95,459.18H92.55c-.6,0-1.09-.12-1.09-1.5h0c0-1.38.49-1.5,1.09-1.5h59.4c.6,0,1.09.12,1.09,1.5h0C153,459.06,152.55,459.18,151.95,459.18Z"/><path class="cls-29" d="M216.95,459.18h-59.4c-.6,0-1.09-.12-1.09-1.5h0c0-1.38.49-1.5,1.09-1.5h59.4c.6,0,1.09.12,1.09,1.5h0C218,459.06,217.55,459.18,216.95,459.18Z"/><g class="cls-30"><polygon class="cls-18" points="303.1 3.04 167.47 608.84 104.28 608.84 254.62 3.04 303.1 3.04"/><polygon class="cls-18" points="374.25 3.04 243.77 608.84 206.26 608.84 345.71 3.04 374.25 3.04"/></g><path class="cls-11" d="M394,615.9H87.14a28.75,28.75,0,0,1-28.72-28.72V28.72A28.75,28.75,0,0,1,87.14,0H394A28.75,28.75,0,0,1,422.7,28.72V587.18A28.75,28.75,0,0,1,394,615.9ZM87.14,5A23.75,23.75,0,0,0,63.42,28.72V587.18A23.75,23.75,0,0,0,87.14,610.9H394a23.75,23.75,0,0,0,23.72-23.72V28.72A23.75,23.75,0,0,0,394,5Z"/><rect class="cls-31" x="990.75" y="658.84" width="262" height="24" rx="12" ry="12"/><path class="cls-32" d="M1252.75,671.84a12,12,0,0,1-12,12h-238a12,12,0,0,1-12-12,11.89,11.89,0,0,1,1.62-6,12,12,0,0,0,10.38,6h238a12,12,0,0,0,8.48-3.52,11.76,11.76,0,0,0,1.9-2.48A11.9,11.9,0,0,1,1252.75,671.84Z"/><path class="cls-11" d="M1240.75,685.84h-238a15,15,0,1,1,0-30h238a15,15,0,0,1,0,30Zm-238-24a9,9,0,1,0,0,18h238a9,9,0,0,0,0-18Z"/><path class="cls-11" d="M665.75,687.84h-68v-3c0-21.51,19.4-24,34-24s34,2.49,34,24Zm-61.82-6h55.65c-1.3-10.48-9.83-15-27.82-15S605.23,671.37,603.93,681.84Z"/><rect class="cls-33" x="1482.75" y="453.28" width="16" height="226.56"/><path class="cls-34" d="M1497.75,470.84v15c-5.48-.31-10.85-.86-16-1.64V470.84Z"/><path class="cls-11" d="M1500.75,679.41h-20V448.84h20Zm-16-4h12V452.84h-12Z"/><rect class="cls-33" x="1396.75" y="671.84" width="186" height="16"/><rect class="cls-34" x="1398.75" y="670.84" width="186" height="8"/><path class="cls-11" d="M1587.75,690.84h-192v-22h192Zm-186-6h180v-10h-180Z"/><path class="cls-35" d="M1610.5,531.34a120.25,120.25,0,1,0-240.5,0l17.75-.5c0-56.89,45.89-103,102.5-103s102.5,46.11,102.5,103Z"/><path class="cls-11" d="M1612.5,533.4l-21.75-.61v-1.94c0-55.69-45.08-101-100.5-101s-100.5,45.31-100.5,101v1.94l-21.75.61v-2.06a122.25,122.25,0,1,1,244.5,0Zm-17.77-4.5,13.75.39a118.25,118.25,0,0,0-236.46,0l13.75-.39c1-57,47.51-103.05,104.48-103.05S1593.7,471.9,1594.74,528.9Z"/><path class="cls-36" d="M1642.4,613.2a22.36,22.36,0,0,0,0-44.72"/><rect class="cls-35" x="1582.33" y="527.84" width="41" height="122" rx="12" ry="12" transform="translate(3205.65 1177.69) rotate(-180)"/><path class="cls-35" d="M1625.79,629.84c8,0,14.55-3.63,14.55-8.07V555.91c0-4.44-6.55-8.07-14.55-8.07"/><path class="cls-37" d="M1592.75,645.84v-98a12,12,0,0,1,12-12h17a12,12,0,0,1,1.32.08,12,12,0,0,0-11.32-8.08h-17a12,12,0,0,0-12,12v98a12,12,0,0,0,10.68,11.92A11.87,11.87,0,0,1,1592.75,645.84Z"/><path class="cls-11" d="M1611.33,652.34h-17a14.52,14.52,0,0,1-14.5-14.5v-98a14.52,14.52,0,0,1,14.5-14.5h17a14.52,14.52,0,0,1,14.5,14.5v98A14.52,14.52,0,0,1,1611.33,652.34Zm-17-122a9.51,9.51,0,0,0-9.5,9.5v98a9.51,9.51,0,0,0,9.5,9.5h17a9.51,9.51,0,0,0,9.5-9.5v-98a9.51,9.51,0,0,0-9.5-9.5Z"/><path class="cls-11" d="M1625.79,632.34v-5c6.9,0,12.05-2.94,12.05-5.57V555.91c0-2.63-5.16-5.57-12.05-5.57v-5c9.56,0,17.05,4.64,17.05,10.57v65.87C1642.84,627.7,1635.35,632.34,1625.79,632.34Z"/><path class="cls-11" d="M1640.4,613.7v-5a19.86,19.86,0,0,0,0-39.72v-5a24.86,24.86,0,0,1,0,49.72Z"/><circle class="cls-38" cx="1607" cy="633.09" r="7.75"/><circle class="cls-39" cx="1607" cy="633.09" r="3.75"/><path class="cls-36" d="M1340.68,611.2a22.36,22.36,0,0,1,0-44.72"/><rect class="cls-35" x="1359.75" y="525.84" width="41" height="122" rx="12" ry="12"/><path class="cls-35" d="M1357.29,627.84c-8,0-14.55-3.63-14.55-8.07V553.91c0-4.44,6.55-8.07,14.55-8.07"/><path class="cls-37" d="M1369.75,643.84v-98a12,12,0,0,1,12-12h17a12,12,0,0,1,1.32.08,12,12,0,0,0-11.32-8.08h-17a12,12,0,0,0-12,12v98a12,12,0,0,0,10.68,11.92A11.87,11.87,0,0,1,1369.75,643.84Z"/><path class="cls-11" d="M1388.75,650.34h-17a14.52,14.52,0,0,1-14.5-14.5v-98a14.52,14.52,0,0,1,14.5-14.5h17a14.52,14.52,0,0,1,14.5,14.5v98A14.52,14.52,0,0,1,1388.75,650.34Zm-17-122a9.51,9.51,0,0,0-9.5,9.5v98a9.51,9.51,0,0,0,9.5,9.5h17a9.51,9.51,0,0,0,9.5-9.5v-98a9.51,9.51,0,0,0-9.5-9.5Z"/><path class="cls-11" d="M1357.29,630.34c-9.56,0-17.05-4.64-17.05-10.57V553.91c0-5.92,7.49-10.57,17.05-10.57v5c-6.9,0-12.05,2.94-12.05,5.57v65.87c0,2.63,5.16,5.57,12.05,5.57Z"/><path class="cls-11" d="M1342.68,611.7a24.86,24.86,0,0,1,0-49.72v5a19.86,19.86,0,0,0,0,39.72Z"/><circle class="cls-33" cx="1490.25" cy="450.84" r="20" transform="translate(813.53 1853.04) rotate(-81.07)"/><path class="cls-11" d="M1490.25,473.84a23,23,0,1,1,23-23A23,23,0,0,1,1490.25,473.84Zm0-40a17,17,0,1,0,17,17A17,17,0,0,0,1490.25,433.84Z"/></g></g></svg>